<svg width="51" height="80" viewBox="0 0 51 80" fill="none" xmlns="http://www.w3.org/2000/svg">
<path d="M0 0H8.49852V15.7151L14.9555 0H23.2641L16.1424 17.3769L23.5964 38.457H14.9555L9.40059 21.4599L8.49852 22.9792V38.457H0V0Z" fill="#E3E3E3"/>
<path d="M26.9381 0H37.5256C41.7353 0 44.9163 0.743819 47.0686 2.23146C49.2209 3.71909 50.2971 6.36202 50.2971 10.1602C50.2971 12.724 49.9648 14.7656 49.3001 16.2849C48.6354 17.8042 47.401 18.9911 45.5968 19.8457L50.8668 38.457H42.0835L37.8579 21.2226H35.4366V38.457H26.9381V0ZM37.8105 16.3323C39.5197 16.3323 40.7066 15.8892 41.3713 15.003C42.0676 14.0851 42.4158 12.724 42.4158 10.9199C42.4158 9.17903 42.0993 7.88131 41.4662 7.02671C40.8332 6.14045 39.7412 5.69733 38.1903 5.69733H35.4366V16.3323H37.8105Z" fill="#E3E3E3"/>
<path d="M0 41.543H17.2819V47.3353H8.49852V56.8783H15.1929V62.7656H8.49852V74.2552H17.3769V80H0V41.543Z" fill="#E3E3E3"/>
<path d="M43.2524 72.6884H50.564V80H43.2524V72.6884Z" fill="#E3E3E3"/>
</svg>
